HIERARCHY
ROOT joint_Root
{
	OFFSET 0.0 0.0 0.0
	CHANNELS 6 Xposition Yposition Zposition Zrotation Xrotation Yrotation 
	JOINT Hips
	{
		OFFSET 4.5925 91.4895 -427.239
		CHANNELS 6 Xposition Yposition Zposition Zrotation Xrotation Yrotation 
		JOINT Spine
		{
			OFFSET 15.7357 0.0 0.0
			CHANNELS 6 Xposition Yposition Zposition Zrotation Xrotation Yrotation 
			JOINT Chest
			{
				OFFSET 8.98455 -0.406207 0.0
				CHANNELS 6 Xposition Yposition Zposition Zrotation Xrotation Yrotation 
				JOINT Neck
				{
					OFFSET 16.3773 0.0 0.0
					CHANNELS 6 Xposition Yposition Zposition Zrotation Xrotation Yrotation 
					JOINT Head
					{
						OFFSET 6.45672 0.0 0.0
						CHANNELS 6 Xposition Yposition Zposition Zrotation Xrotation Yrotation 
						End Site
						{
							OFFSET 0.0 0.0 0.0
						}
					}
				}
				JOINT Shoulder_L
				{
					OFFSET 12.9942 -0.242716 4.98039
					CHANNELS 6 Xposition Yposition Zposition Zrotation Xrotation Yrotation 
					JOINT UpperArm_L
					{
						OFFSET 5.34809 0.0 0.0
						CHANNELS 6 Xposition Yposition Zposition Zrotation Xrotation Yrotation 
						JOINT LowerArm_L
						{
							OFFSET 24.3286 1.87007e-05 0.0
							CHANNELS 6 Xposition Yposition Zposition Zrotation Xrotation Yrotation 
							JOINT Hand_L
							{
								OFFSET 22.2916 0.0 0.0
								CHANNELS 6 Xposition Yposition Zposition Zrotation Xrotation Yrotation 
								End Site
								{
									OFFSET 0.0 0.0 0.0
								}
							}
						}
					}
				}
				JOINT Shoulder_R
				{
					OFFSET 12.9945 -0.242716 -4.98039
					CHANNELS 6 Xposition Yposition Zposition Zrotation Xrotation Yrotation 
					JOINT UpperArm_R
					{
						OFFSET -5.34813 0.0 0.0
						CHANNELS 6 Xposition Yposition Zposition Zrotation Xrotation Yrotation 
						JOINT LowerArm_R
						{
							OFFSET -24.3289 0.000322201 0.0
							CHANNELS 6 Xposition Yposition Zposition Zrotation Xrotation Yrotation 
							JOINT Hand_R
							{
								OFFSET -22.2915 -0.000108084 0.0
								CHANNELS 6 Xposition Yposition Zposition Zrotation Xrotation Yrotation 
								End Site
								{
									OFFSET 0.0 0.0 0.0
								}
							}
						}
					}
				}
			}
		}
		JOINT UpperLeg_L
		{
			OFFSET -2.19248 -6.46944 0.0
			CHANNELS 6 Xposition Yposition Zposition Zrotation Xrotation Yrotation 
			JOINT LowerLeg_L
			{
				OFFSET 39.0811 0.0 -1.23785e-05
				CHANNELS 6 Xposition Yposition Zposition Zrotation Xrotation Yrotation 
				JOINT Foot_L
				{
					OFFSET 40.9854 0.0 -1.26872e-05
					CHANNELS 6 Xposition Yposition Zposition Zrotation Xrotation Yrotation 
					JOINT Toes_L
					{
						OFFSET 11.7543 0.0 0.0
						CHANNELS 6 Xposition Yposition Zposition Zrotation Xrotation Yrotation 
						End Site
						{
							OFFSET 0.0 0.0 0.0
						}
					}
				}
			}
		}
		JOINT UpperLeg_R
		{
			OFFSET -2.19251 6.46944 0.0
			CHANNELS 6 Xposition Yposition Zposition Zrotation Xrotation Yrotation 
			JOINT LowerLeg_R
			{
				OFFSET -39.0811 -0.00228153 -0.0401928
				CHANNELS 6 Xposition Yposition Zposition Zrotation Xrotation Yrotation 
				JOINT Foot_R
				{
					OFFSET -40.9854 0.0 0.0
					CHANNELS 6 Xposition Yposition Zposition Zrotation Xrotation Yrotation 
					JOINT Toes_R
					{
						OFFSET -11.7543 0.0 0.0
						CHANNELS 6 Xposition Yposition Zposition Zrotation Xrotation Yrotation 
						End Site
						{
							OFFSET 0.0 0.0 0.0
						}
					}
				}
			}
		}
	}
}
MOTION
Frames:	4
Frame Time:	0.0333333
0.000000 0.000000 0.000000 0.000000 0.000000 -0.000000 130.767000 90.508900 -14.765000 88.516500 -1.942630 0.790235 15.735700 0.000005 -0.000001 89.998900 81.405600 -90.746600 8.984550 -0.406207 -0.000000 9.423060 -0.011143 -1.493330 16.377300 -0.000001 -0.000001 2.690890 -3.776030 0.354849 6.456720 -0.000001 -0.000000 -1.469940 -4.599500 1.205380 12.994200 -0.242716 4.980390 -91.104300 3.568360 -72.791800 5.348090 -0.000007 -0.000001 -65.434400 18.844500 -13.220300 24.328600 0.000019 0.000005 10.631100 22.674400 -25.962800 22.291600 -0.000001 0.000005 13.409900 5.176770 3.295050 12.994500 -0.242716 -4.980390 88.548100 8.619840 -80.401500 -5.348130 -0.000001 -0.000004 -64.812300 28.369600 -5.593860 -24.328900 0.000322 -0.000009 2.070270 3.690080 -29.334600 -22.291500 -0.000108 -0.000004 15.608800 5.413020 -3.365350 -2.192480 -6.469440 -0.000000 -179.704000 -9.590670 -13.953300 39.081100 -0.000007 -0.000012 -0.210270 0.309496 34.192400 40.985400 -0.000006 -0.000013 2.955010 1.530400 -70.031000 11.754300 -0.000000 0.000003 -0.000208 -0.001912 -16.649600 -2.192510 6.469440 -0.000001 178.101000 15.690300 162.931000 -39.081100 -0.002282 -0.040193 0.080399 -0.064176 50.246300 -40.985400 0.000008 0.000006 3.149670 -0.735272 -66.545600 -11.754300 -0.000006 -0.000006 -0.010095 -0.104347 -20.824600
0.000000 0.000000 0.000000 0.000000 0.000000 -0.000000 130.775000 90.748200 -13.567200 88.169400 -1.485600 0.510641 15.735700 0.000005 -0.000001 88.906400 81.386600 -89.489900 8.984550 -0.406207 -0.000000 9.456360 -0.335501 -1.138290 16.377300 -0.000001 -0.000001 2.570620 -3.812650 0.355482 6.456720 -0.000001 -0.000000 -1.587800 -4.527670 1.413500 12.994200 -0.242716 4.980390 -91.041500 3.413630 -73.022200 5.348090 -0.000007 -0.000001 -64.680700 19.666800 -15.290800 24.328600 0.000019 0.000005 11.007600 20.916600 -28.584100 22.291600 -0.000001 0.000005 13.325500 5.190110 2.966130 12.994500 -0.242716 -4.980390 88.522000 8.658430 -80.274400 -5.348130 -0.000001 -0.000004 -65.523200 28.320400 -4.394990 -24.328900 0.000322 -0.000009 2.183400 4.068680 -28.263100 -22.291500 -0.000108 -0.000004 15.177200 5.404550 -3.085690 -2.192480 -6.469440 -0.000000 -179.270000 -9.496270 -12.715400 39.081100 -0.000007 -0.000012 -0.215137 0.332658 32.891900 40.985400 -0.000006 -0.000013 2.929430 1.802330 -70.239000 11.754300 -0.000000 0.000003 -0.000205 -0.001891 -16.648900 -2.192510 6.469440 -0.000001 179.540000 16.207300 161.322000 -39.081100 -0.002282 -0.040193 0.060346 -0.056546 45.270400 -40.985400 0.000008 0.000006 2.526870 1.040850 -66.713600 -11.754300 -0.000006 -0.000006 -0.010618 -0.108200 -20.982300
0.000000 0.000000 0.000000 0.000000 0.000000 -0.000000 130.708000 90.892600 -12.416400 87.921500 -1.033620 0.200352 15.735700 0.000005 -0.000001 87.722000 81.332100 -88.168300 8.984550 -0.406207 -0.000000 9.553950 -0.692019 -0.834186 16.377300 -0.000001 -0.000001 2.355990 -3.860240 0.412496 6.456720 -0.000001 -0.000000 -1.678080 -4.399140 1.542510 12.994200 -0.242716 4.980390 -91.000500 3.326620 -73.250300 5.348090 -0.000007 -0.000001 -63.751000 20.380200 -17.472700 24.328600 0.000019 0.000005 11.410300 19.539100 -31.108600 22.291600 -0.000001 0.000005 13.424900 5.207830 2.522570 12.994500 -0.242716 -4.980390 88.485100 8.749730 -80.137500 -5.348130 -0.000001 -0.000004 -66.000900 28.235700 -3.613180 -24.328900 0.000322 -0.000009 2.225310 4.341450 -27.183800 -22.291500 -0.000108 -0.000004 14.964100 5.402860 -3.030420 -2.192480 -6.469440 -0.000000 -178.879000 -9.300780 -11.694900 39.081100 -0.000007 -0.000012 -0.228480 0.366907 31.911700 40.985400 -0.000006 -0.000013 2.839260 2.029920 -70.576700 11.754300 -0.000000 0.000003 -0.000211 -0.001939 -16.650600 -2.192510 6.469440 -0.000001 -178.869000 17.156200 159.829000 -39.081100 -0.002282 -0.040193 0.041901 -0.046967 39.430100 -40.985400 0.000008 0.000006 2.488820 2.511300 -66.196100 -11.754300 -0.000006 -0.000006 -0.010825 -0.109700 -21.043700
0.000000 0.000000 0.000000 0.000000 0.000000 -0.000000 130.576000 90.949300 -11.280000 87.705400 -0.473203 -0.205783 15.735700 0.000005 -0.000001 86.405300 81.272300 -86.717500 8.984550 -0.406207 -0.000000 9.653340 -1.093070 -0.531540 16.377300 -0.000001 -0.000001 2.212760 -3.863490 0.409919 6.456720 -0.000001 -0.000000 -1.832350 -4.280280 1.736320 12.994200 -0.242716 4.980390 -90.980200 3.298340 -73.439400 5.348090 -0.000007 -0.000001 -62.661200 21.047300 -19.744400 24.328600 0.000019 0.000005 11.795400 18.392700 -33.497900 22.291600 -0.000001 0.000005 13.667800 5.214960 2.341260 12.994500 -0.242716 -4.980390 88.432400 8.951610 -80.025100 -5.348130 -0.000001 -0.000004 -66.282200 27.729800 -3.146040 -24.328900 0.000322 -0.000009 2.329680 4.723640 -26.301300 -22.291500 -0.000108 -0.000004 14.922700 5.399310 -2.914930 -2.192480 -6.469440 -0.000000 -178.486000 -9.041410 -10.994000 39.081100 -0.000007 -0.000012 -0.232588 0.382654 31.292800 40.985400 -0.000006 -0.000013 2.739020 2.356880 -71.058800 11.754300 -0.000000 0.000003 -0.000238 -0.002144 -16.658000 -2.192510 6.469440 -0.000001 -177.014000 18.589700 158.213000 -39.081100 -0.002282 -0.040193 0.030511 -0.041644 33.166100 -40.985400 0.000008 0.000006 2.295460 4.343980 -63.845800 -11.754300 -0.000006 -0.000006 -0.010468 -0.107104 -20.937400
